<svg xmlns="http://www.w3.org/2000/svg" xmlns:xlink="http://www.w3.org/1999/xlink" width="51.39999771118164" viewBox="2.200000047683716 10.520000457763672 51.39999771118164 28.39999771118164" overflow="visible" style="overflow: visible;fill: orangered;"><path stroke="none" fill="#fff" fill-opacity="1" d="M24.88 33.72L24.88 24.84L26.84 24.84L26.84 38.72L25 38.72L25 35.92L25 35.92Q23.28 37.40 21.02 38.16L21.02 38.16L21.02 38.16Q18.76 38.92 16.24 38.92L16.24 38.92L16.24 38.92Q12.56 38.92 9.34 37.24L9.34 37.24L9.34 37.24Q6.12 35.56 4.16 32.36L4.16 32.36L4.16 32.36Q2.20 29.16 2.20 24.76L2.20 24.76L2.20 24.76Q2.20 20.72 4.10 17.46L4.10 17.46L4.10 17.46Q6 14.20 9.34 12.36L9.34 12.36L9.34 12.36Q12.68 10.52 16.88 10.52L16.88 10.52L16.88 10.52Q19.96 10.52 22.54 11.50L22.54 11.50L22.54 11.50Q25.12 12.48 26.96 14.36L26.96 14.36L25.68 15.72L25.68 15.72Q23.92 13.96 21.74 13.18L21.74 13.18L21.74 13.18Q19.56 12.40 16.92 12.40L16.92 12.40L16.92 12.40Q13.32 12.40 10.42 14.02L10.42 14.02L10.42 14.02Q7.52 15.64 5.88 18.46L5.88 18.46L5.88 18.46Q4.24 21.28 4.24 24.76L4.24 24.76L4.24 24.76Q4.24 28.52 5.94 31.32L5.94 31.32L5.94 31.32Q7.64 34.12 10.42 35.60L10.42 35.60L10.42 35.60Q13.20 37.08 16.36 37.08L16.36 37.08L16.36 37.08Q18.72 37.08 20.94 36.24L20.94 36.24L20.94 36.24Q23.16 35.40 24.88 33.72L24.88 33.72ZM53.60 13.52L52.80 15.16L52.80 15.16Q48.60 12.68 43.32 12.40L43.32 12.40L43.32 38.72L41.24 38.72L41.24 12.40L41.24 12.40Q36.16 12.60 31.76 15.16L31.76 15.16L30.96 13.52L30.96 13.52Q36.08 10.52 42.24 10.52L42.24 10.52L42.24 10.52Q48.48 10.52 53.60 13.52L53.60 13.52Z" transform="rotate(0 27.899998903274536 24.719999313354492)"></path></svg>