<svg xmlns="http://www.w3.org/2000/svg" data-name="Layer 1" viewBox="5.594635963439941 24.24184799194336 79.9453125 40.68418502807617" x="0px" y="0px" width="79.9453125" height="40.68418502807617"><title>stevie_icons_2</title><path fill="#fff" d="M15.13,25.6267c-1.0889,4.1271-.7418,8.27-1.7579,12.2683-.8517,3.3514.0693,6.7248,1.6258,9.7849A40.6631,40.6631,0,0,0,18.12,52.3122a3.5714,3.5714,0,0,0,.75.7453,1.2207,1.2207,0,0,0,1.4765.19,1.0909,1.0909,0,0,0,.3291-1.2112,33.2721,33.2721,0,0,1-.358-6.6359,8.1772,8.1772,0,0,1,1.037-4.083,3.6815,3.6815,0,0,1,.838-1.0009.83.83,0,0,1,.9955-.0537.7815.7815,0,0,1,.4036.8971c-.1174.4252-.2907.835-.442,1.2507-1.4083,3.8685-.9577,7.6814.42,11.4354a4.2108,4.2108,0,0,0,4.2542,2.9816,42.2973,42.2973,0,0,1,5.0335.4811A8.4179,8.4179,0,0,1,39.3,61.9459c.33.5936.5422,1.1736-.128,1.6339a1.0452,1.0452,0,0,1-1.5814-.4743c-1.9832-3.8024-5.5084-4.0218-9.1527-4.0954-5.3068-.1072-9.7623-2.3388-13.7548-5.6656a2.285,2.285,0,0,1-.3816-.3707c-3.1229-4.1982-6.1341-8.4544-7.4587-13.6414-.3287-1.2871-.7941-2.5388-1.1624-3.8166-.1878-.6517-.1062-1.3123.6409-1.5157.6141-.1672.9932.3549,1.1955.8454A13.9474,13.9474,0,0,1,8.8293,38.6a4.6346,4.6346,0,0,0,.2015,1.0436c.2869.8087.3353,2.1206,1.3608,2.0375,1.3219-.107.5071-1.4181.6613-2.1828.21-1.04.21-2.1231.4393-3.1571a28.32,28.32,0,0,0,.8739-6.8458,14.169,14.169,0,0,1,.7209-4.181c.1688-.6023.53-1.2334,1.3087-1.0355C15.1451,24.47,15.1765,25.1458,15.13,25.6267Z"></path><path fill="#fff" d="M69.7072,46.4916a14.7389,14.7389,0,0,1-2.6831,8.2442c-.1874.2785-.4288.6941-.3445.9453.1677.5.722.4269,1.14.3549,1.0481-.18,2.095-.384,3.125-.6464a2.015,2.015,0,0,0,1.1454-.6077c1.5913-2.4318,3.3982-4.7551,3.7137-7.8188.2634-2.5577.6765-5.1,1.0146-7.65a19.04,19.04,0,0,0-.5368-6.6022c-.1133-.5193-.3045-1.0241-.387-1.5471-.0859-.5445-.0279-1.1249.574-1.3489.79-.294,1.2008.3071,1.38.8866a17.5241,17.5241,0,0,1,1.141,7.3013c-.5126,4.223-.6765,8.5024-1.9426,12.6119-.1153.3742-.4414.904.153,1.1111.2335.0813.6677-.1864.9141-.4043,3.0141-2.6645,5.4253-5.653,5.2327-10.0014a4.9,4.9,0,0,1,.06-1.0627c.1235-.6974.2311-1.5749,1.1631-1.4755.865.0923.9893.9523.968,1.67-.09,3.0489-.4948,5.9942-2.4308,8.55A23.0041,23.0041,0,0,1,65.15,58.5088a26.4382,26.4382,0,0,0-5.9877,1.2068c-1.7826.5168-2.9875,1.5178-3.1609,3.4828a7.7325,7.7325,0,0,1-.1824,1.0473.7991.7991,0,0,1-.7182.6785.9723.9723,0,0,1-.9993-.72,4.0282,4.0282,0,0,1,.05-2.6139A5.1772,5.1772,0,0,1,58.02,57.891c2.61-.6041,4.5619-2.3851,6.5423-3.8467,2.639-1.9476,3.0235-5.2741,3.039-8.4629.0026-.5281-.1642-1.058-.1532-1.5849a.9924.9924,0,0,1,.9545-1.0746,1.01,1.01,0,0,1,1.1166.9193C69.65,44.7144,69.6512,45.6072,69.7072,46.4916Z"></path></svg>